<svg xmlns="http://www.w3.org/2000/svg" viewBox="0 0 200 200" width="200" height="200">
  <defs>
    <filter id="sh"><feDropShadow dx="0" dy="2" stdDeviation="3" flood-opacity="0.18"/></filter>
    <filter id="bl"><feGaussianBlur stdDeviation="3"/></filter>
    
  </defs>
  <!-- background -->
  <rect width="200" height="200" rx="20" fill="#FAFAFA"/>
  <path d="M100,55 C70,55 55,75 55,100 C55,130 70,152 100,155 C130,152 145,130 145,100 C145,75 130,55 100,55 Z" fill="#F5F5F5" stroke="#333333" stroke-width="2.5"/><ellipse cx="100" cy="52" rx="8" ry="12" fill="#A5D6A7" stroke="#333333" stroke-width="1.5"/><line x1="100" y1="40" x2="103" y2="55" stroke="#4CAF50" stroke-width="2" stroke-linecap="round"/><path d="M66,70 C60,85 60,115 66,130" fill="none" stroke="#E0E0E0" stroke-width="15" stroke-linecap="round"/><path d="M134,70 C140,85 140,115 134,130" fill="none" stroke="#E0E0E0" stroke-width="15" stroke-linecap="round"/><rect x="10" y="168" width="180" height="22" rx="6" fill="#fff" fill-opacity="0.85"/><text x="100" y="179" font-family="Arial,sans-serif" font-size="11" font-weight="normal" fill="#444" text-anchor="middle" dominant-baseline="middle" >Apple Core</text>
</svg>