<svg xmlns="http://www.w3.org/2000/svg" viewBox="0 0 200 200" width="200" height="200">
  <defs>
    <filter id="sh"><feDropShadow dx="0" dy="2" stdDeviation="3" flood-opacity="0.18"/></filter>
    <filter id="bl"><feGaussianBlur stdDeviation="3"/></filter>
    
  </defs>
  <!-- background -->
  <rect width="200" height="200" rx="20" fill="#FAFAFA"/>
  <path d="M100,35 C100,35 75,55 65,90 C60,110 70,125 100,130 C130,125 140,110 135,90 C125,55 100,35 100,35 Z" fill="#FFF176" stroke="#333333" stroke-width="2.5"/><path d="M100,35 C100,35 85,50 83,80 L100,130 L117,80 C115,50 100,35 100,35 Z" fill="#FDD835" stroke="#333333" stroke-width="1.5"/><path d="M65,90 Q60,115 75,140 L100,130" fill="#FFEE58" stroke="#333333" stroke-width="1.5"/><path d="M135,90 Q140,115 125,140 L100,130" fill="#FFEE58" stroke="#333333" stroke-width="1.5"/><rect x="10" y="168" width="180" height="22" rx="6" fill="#fff" fill-opacity="0.85"/><text x="100" y="179" font-family="Arial,sans-serif" font-size="11" font-weight="normal" fill="#444" text-anchor="middle" dominant-baseline="middle" >Banana Peel</text>
</svg>