<svg xmlns="http://www.w3.org/2000/svg" viewBox="0 0 200 200" width="200" height="200">
  <defs>
    <filter id="sh"><feDropShadow dx="0" dy="2" stdDeviation="3" flood-opacity="0.18"/></filter>
    <filter id="bl"><feGaussianBlur stdDeviation="3"/></filter>
    
  </defs>
  <!-- background -->
  <rect width="200" height="200" rx="20" fill="#FAFAFA"/>
  <rect x="60" y="50" width="80" height="120" rx="10" fill="#90A4AE" stroke="#333333" stroke-width="2.5" /><rect x="60" y="50" width="80" height="18" rx="10" fill="#78909C" stroke="#333333" stroke-width="2.5" /><rect x="60" y="148" width="80" height="22" rx="10" fill="#78909C" stroke="#333333" stroke-width="2.5" /><rect x="65" y="54" width="70" height="109" rx="6" fill="#B0BEC5" stroke="#333333" stroke-width="2.5" /><rect x="82" y="42" width="36" height="12" rx="4" fill="#607D8B" stroke="#333333" stroke-width="1.5"/><rect x="90" y="36" width="20" height="8" rx="3" fill="#546E7A" stroke="#333333" stroke-width="1.5"/><rect x="68" y="80" width="64" height="48" rx="4" fill="#78909C" fill-opacity="0.5"/><text x="100" y="107" font-family="Arial,sans-serif" font-size="14" font-weight="bold" fill="#FAFAFA" text-anchor="middle">AA</text><line x1="85" y1="138" x2="95" y2="128" stroke="#E53935" stroke-width="3" stroke-linecap="round"/><line x1="105" y1="138" x2="115" y2="128" stroke="#E53935" stroke-width="3" stroke-linecap="round"/><line x1="95" y1="128" x2="105" y2="138" stroke="#E53935" stroke-width="3" stroke-linecap="round"/><line x1="115" y1="128" x2="105" y2="128" stroke="#E53935" stroke-width="3" stroke-linecap="round"/><rect x="10" y="168" width="180" height="22" rx="6" fill="#fff" fill-opacity="0.85"/><text x="100" y="179" font-family="Arial,sans-serif" font-size="11" font-weight="normal" fill="#444" text-anchor="middle" dominant-baseline="middle" >Dead Battery</text>
</svg>