<svg xmlns="http://www.w3.org/2000/svg" viewBox="0 0 200 200" width="200" height="200">
  <defs>
    <filter id="sh"><feDropShadow dx="0" dy="2" stdDeviation="3" flood-opacity="0.18"/></filter>
    <filter id="bl"><feGaussianBlur stdDeviation="3"/></filter>
    
  </defs>
  <!-- background -->
  <rect width="200" height="200" rx="20" fill="#FAFAFA"/>
  <rect x="45" y="40" width="110" height="140" rx="4" fill="#FF8F00" stroke="#333333" stroke-width="2.5" /><rect x="45" y="40" width="18" height="140" rx="4" fill="#E65100" stroke="#333333" stroke-width="2.5" /><rect x="55" y="50" width="90" height="120" rx="3" fill="#FFF3E0" stroke="#333333" stroke-width="2.5" /><line x1="58" y1="60" x2="142" y2="60" stroke="#FFCCBC" stroke-width="1"/><line x1="58" y1="68" x2="142" y2="68" stroke="#FFCCBC" stroke-width="1"/><line x1="58" y1="76" x2="142" y2="76" stroke="#FFCCBC" stroke-width="1"/><line x1="58" y1="84" x2="142" y2="84" stroke="#FFCCBC" stroke-width="1"/><line x1="58" y1="92" x2="142" y2="92" stroke="#FFCCBC" stroke-width="1"/><line x1="58" y1="100" x2="142" y2="100" stroke="#FFCCBC" stroke-width="1"/><line x1="58" y1="108" x2="142" y2="108" stroke="#FFCCBC" stroke-width="1"/><line x1="58" y1="116" x2="142" y2="116" stroke="#FFCCBC" stroke-width="1"/><line x1="58" y1="124" x2="142" y2="124" stroke="#FFCCBC" stroke-width="1"/><line x1="58" y1="132" x2="142" y2="132" stroke="#FFCCBC" stroke-width="1"/><line x1="58" y1="140" x2="142" y2="140" stroke="#FFCCBC" stroke-width="1"/><line x1="58" y1="148" x2="142" y2="148" stroke="#FFCCBC" stroke-width="1"/><line x1="58" y1="156" x2="142" y2="156" stroke="#FFCCBC" stroke-width="1"/><line x1="58" y1="164" x2="142" y2="164" stroke="#FFCCBC" stroke-width="1"/><line x1="55" y1="50" x2="55" y2="170" stroke="#FFCCBC" stroke-width="1"/><rect x="10" y="168" width="180" height="22" rx="6" fill="#fff" fill-opacity="0.85"/><text x="100" y="179" font-family="Arial,sans-serif" font-size="11" font-weight="normal" fill="#444" text-anchor="middle" dominant-baseline="middle" >Old Paperback Book</text>
</svg>