<svg xmlns="http://www.w3.org/2000/svg" viewBox="0 0 200 200" width="200" height="200">
  <defs>
    <filter id="sh"><feDropShadow dx="0" dy="2" stdDeviation="3" flood-opacity="0.18"/></filter>
    <filter id="bl"><feGaussianBlur stdDeviation="3"/></filter>
    
  </defs>
  <!-- background -->
  <rect width="200" height="200" rx="20" fill="#FAFAFA"/>
  <rect x="30" y="40" width="140" height="120" rx="6" fill="#E3F2FD" stroke="#333333" stroke-width="2.5" /><circle cx="45" cy="58" r="9" fill="#BBDEFB" fill-opacity="0.8" stroke="#90CAF9" stroke-width="1.2"/><circle cx="67" cy="58" r="9" fill="#BBDEFB" fill-opacity="0.8" stroke="#90CAF9" stroke-width="1.2"/><circle cx="89" cy="58" r="9" fill="#BBDEFB" fill-opacity="0.8" stroke="#90CAF9" stroke-width="1.2"/><circle cx="111" cy="58" r="9" fill="#BBDEFB" fill-opacity="0.8" stroke="#90CAF9" stroke-width="1.2"/><circle cx="133" cy="58" r="9" fill="#BBDEFB" fill-opacity="0.8" stroke="#90CAF9" stroke-width="1.2"/><circle cx="155" cy="58" r="9" fill="#BBDEFB" fill-opacity="0.8" stroke="#90CAF9" stroke-width="1.2"/><circle cx="45" cy="80" r="9" fill="#BBDEFB" fill-opacity="0.8" stroke="#90CAF9" stroke-width="1.2"/><circle cx="67" cy="80" r="9" fill="#BBDEFB" fill-opacity="0.8" stroke="#90CAF9" stroke-width="1.2"/><circle cx="89" cy="80" r="9" fill="#BBDEFB" fill-opacity="0.8" stroke="#90CAF9" stroke-width="1.2"/><circle cx="111" cy="80" r="9" fill="#BBDEFB" fill-opacity="0.8" stroke="#90CAF9" stroke-width="1.2"/><circle cx="133" cy="80" r="9" fill="#BBDEFB" fill-opacity="0.8" stroke="#90CAF9" stroke-width="1.2"/><circle cx="155" cy="80" r="9" fill="#BBDEFB" fill-opacity="0.8" stroke="#90CAF9" stroke-width="1.2"/><circle cx="45" cy="102" r="9" fill="#BBDEFB" fill-opacity="0.8" stroke="#90CAF9" stroke-width="1.2"/><circle cx="67" cy="102" r="9" fill="#BBDEFB" fill-opacity="0.8" stroke="#90CAF9" stroke-width="1.2"/><circle cx="89" cy="102" r="9" fill="#BBDEFB" fill-opacity="0.8" stroke="#90CAF9" stroke-width="1.2"/><circle cx="111" cy="102" r="9" fill="#BBDEFB" fill-opacity="0.8" stroke="#90CAF9" stroke-width="1.2"/><circle cx="133" cy="102" r="9" fill="#BBDEFB" fill-opacity="0.8" stroke="#90CAF9" stroke-width="1.2"/><circle cx="155" cy="102" r="9" fill="#BBDEFB" fill-opacity="0.8" stroke="#90CAF9" stroke-width="1.2"/><circle cx="45" cy="124" r="9" fill="#BBDEFB" fill-opacity="0.8" stroke="#90CAF9" stroke-width="1.2"/><circle cx="67" cy="124" r="9" fill="#BBDEFB" fill-opacity="0.8" stroke="#90CAF9" stroke-width="1.2"/><circle cx="89" cy="124" r="9" fill="#BBDEFB" fill-opacity="0.8" stroke="#90CAF9" stroke-width="1.2"/><circle cx="111" cy="124" r="9" fill="#BBDEFB" fill-opacity="0.8" stroke="#90CAF9" stroke-width="1.2"/><circle cx="133" cy="124" r="9" fill="#BBDEFB" fill-opacity="0.8" stroke="#90CAF9" stroke-width="1.2"/><circle cx="155" cy="124" r="9" fill="#BBDEFB" fill-opacity="0.8" stroke="#90CAF9" stroke-width="1.2"/><circle cx="45" cy="146" r="9" fill="#BBDEFB" fill-opacity="0.8" stroke="#90CAF9" stroke-width="1.2"/><circle cx="67" cy="146" r="9" fill="#BBDEFB" fill-opacity="0.8" stroke="#90CAF9" stroke-width="1.2"/><circle cx="89" cy="146" r="9" fill="#BBDEFB" fill-opacity="0.8" stroke="#90CAF9" stroke-width="1.2"/><circle cx="111" cy="146" r="9" fill="#BBDEFB" fill-opacity="0.8" stroke="#90CAF9" stroke-width="1.2"/><circle cx="133" cy="146" r="9" fill="#BBDEFB" fill-opacity="0.8" stroke="#90CAF9" stroke-width="1.2"/><circle cx="155" cy="146" r="9" fill="#BBDEFB" fill-opacity="0.8" stroke="#90CAF9" stroke-width="1.2"/><rect x="10" y="168" width="180" height="22" rx="6" fill="#fff" fill-opacity="0.85"/><text x="100" y="179" font-family="Arial,sans-serif" font-size="11" font-weight="normal" fill="#444" text-anchor="middle" dominant-baseline="middle" >Bubble Wrap</text>
</svg>