        <svg xmlns="http://www.w3.org/2000/svg" viewBox="0 0 200 200" width="200" height="200">
          <defs>
            <filter id="shadow" x="-15%" y="-15%" width="130%" height="140%">
              <feGaussianBlur in="SourceAlpha" stdDeviation="3.5"/>
              <feOffset dx="0" dy="3" result="offsetblur"/>
              <feFlood flood-color="#00000030"/>
              <feComposite in2="offsetblur" operator="in"/>
              <feMerge><feMergeNode/><feMergeNode in="SourceGraphic"/></feMerge>
            </filter>
            <filter id="blur"><feGaussianBlur stdDeviation="2.8"/></filter>

          </defs>
          <rect width="200" height="200" rx="20" fill="#FFFFFF" stroke="#E0E0E0" stroke-width="1"/>

  <!-- sheet background -->
  <rect x="28" y="42" width="144" height="120" rx="8" fill="#E3F2FD" stroke="#90CAF9" stroke-width="1.8" filter="url(#shadow)"/>
  <!-- bubble grid -->
<ellipse cx="38" cy="56" rx="8" ry="7" fill="#BBDEFB" stroke="#64B5F6" stroke-width="1.2"/><ellipse cx="42" cy="60" rx="3" ry="2.5" fill="white" opacity="0.5"/><ellipse cx="58" cy="56" rx="8" ry="7" fill="#BBDEFB" stroke="#64B5F6" stroke-width="1.2"/><ellipse cx="62" cy="60" rx="3" ry="2.5" fill="white" opacity="0.5"/><ellipse cx="78" cy="56" rx="8" ry="7" fill="#BBDEFB" stroke="#64B5F6" stroke-width="1.2"/><ellipse cx="82" cy="60" rx="3" ry="2.5" fill="white" opacity="0.5"/><ellipse cx="98" cy="56" rx="8" ry="7" fill="#BBDEFB" stroke="#64B5F6" stroke-width="1.2"/><ellipse cx="102" cy="60" rx="3" ry="2.5" fill="white" opacity="0.5"/><ellipse cx="118" cy="56" rx="8" ry="7" fill="#BBDEFB" stroke="#64B5F6" stroke-width="1.2"/><ellipse cx="122" cy="60" rx="3" ry="2.5" fill="white" opacity="0.5"/><ellipse cx="138" cy="56" rx="8" ry="7" fill="#BBDEFB" stroke="#64B5F6" stroke-width="1.2"/><ellipse cx="142" cy="60" rx="3" ry="2.5" fill="white" opacity="0.5"/><ellipse cx="158" cy="56" rx="8" ry="7" fill="#BBDEFB" stroke="#64B5F6" stroke-width="1.2"/><ellipse cx="162" cy="60" rx="3" ry="2.5" fill="white" opacity="0.5"/><ellipse cx="38" cy="78" rx="8" ry="7" fill="#BBDEFB" stroke="#64B5F6" stroke-width="1.2"/><ellipse cx="42" cy="82" rx="3" ry="2.5" fill="white" opacity="0.5"/><ellipse cx="58" cy="78" rx="8" ry="7" fill="#BBDEFB" stroke="#64B5F6" stroke-width="1.2"/><ellipse cx="62" cy="82" rx="3" ry="2.5" fill="white" opacity="0.5"/><ellipse cx="78" cy="78" rx="8" ry="7" fill="#BBDEFB" stroke="#64B5F6" stroke-width="1.2"/><ellipse cx="82" cy="82" rx="3" ry="2.5" fill="white" opacity="0.5"/><ellipse cx="98" cy="78" rx="8" ry="7" fill="#BBDEFB" stroke="#64B5F6" stroke-width="1.2"/><ellipse cx="102" cy="82" rx="3" ry="2.5" fill="white" opacity="0.5"/><ellipse cx="118" cy="78" rx="8" ry="7" fill="#BBDEFB" stroke="#64B5F6" stroke-width="1.2"/><ellipse cx="122" cy="82" rx="3" ry="2.5" fill="white" opacity="0.5"/><ellipse cx="138" cy="78" rx="8" ry="7" fill="#BBDEFB" stroke="#64B5F6" stroke-width="1.2"/><ellipse cx="142" cy="82" rx="3" ry="2.5" fill="white" opacity="0.5"/><ellipse cx="158" cy="78" rx="8" ry="7" fill="#BBDEFB" stroke="#64B5F6" stroke-width="1.2"/><ellipse cx="162" cy="82" rx="3" ry="2.5" fill="white" opacity="0.5"/><ellipse cx="38" cy="100" rx="8" ry="7" fill="#BBDEFB" stroke="#64B5F6" stroke-width="1.2"/><ellipse cx="42" cy="104" rx="3" ry="2.5" fill="white" opacity="0.5"/><ellipse cx="58" cy="100" rx="8" ry="7" fill="#BBDEFB" stroke="#64B5F6" stroke-width="1.2"/><ellipse cx="62" cy="104" rx="3" ry="2.5" fill="white" opacity="0.5"/><ellipse cx="78" cy="100" rx="8" ry="7" fill="#BBDEFB" stroke="#64B5F6" stroke-width="1.2"/><ellipse cx="82" cy="104" rx="3" ry="2.5" fill="white" opacity="0.5"/><ellipse cx="98" cy="100" rx="8" ry="7" fill="#BBDEFB" stroke="#64B5F6" stroke-width="1.2"/><ellipse cx="102" cy="104" rx="3" ry="2.5" fill="white" opacity="0.5"/><ellipse cx="118" cy="100" rx="8" ry="7" fill="#BBDEFB" stroke="#64B5F6" stroke-width="1.2"/><ellipse cx="122" cy="104" rx="3" ry="2.5" fill="white" opacity="0.5"/><ellipse cx="138" cy="100" rx="8" ry="7" fill="#BBDEFB" stroke="#64B5F6" stroke-width="1.2"/><ellipse cx="142" cy="104" rx="3" ry="2.5" fill="white" opacity="0.5"/><ellipse cx="158" cy="100" rx="8" ry="7" fill="#BBDEFB" stroke="#64B5F6" stroke-width="1.2"/><ellipse cx="162" cy="104" rx="3" ry="2.5" fill="white" opacity="0.5"/><ellipse cx="38" cy="122" rx="8" ry="7" fill="#BBDEFB" stroke="#64B5F6" stroke-width="1.2"/><ellipse cx="42" cy="126" rx="3" ry="2.5" fill="white" opacity="0.5"/><ellipse cx="58" cy="122" rx="8" ry="7" fill="#BBDEFB" stroke="#64B5F6" stroke-width="1.2"/><ellipse cx="62" cy="126" rx="3" ry="2.5" fill="white" opacity="0.5"/><ellipse cx="78" cy="122" rx="8" ry="7" fill="#BBDEFB" stroke="#64B5F6" stroke-width="1.2"/><ellipse cx="82" cy="126" rx="3" ry="2.5" fill="white" opacity="0.5"/><ellipse cx="98" cy="122" rx="8" ry="7" fill="#BBDEFB" stroke="#64B5F6" stroke-width="1.2"/><ellipse cx="102" cy="126" rx="3" ry="2.5" fill="white" opacity="0.5"/><ellipse cx="118" cy="122" rx="8" ry="7" fill="#BBDEFB" stroke="#64B5F6" stroke-width="1.2"/><ellipse cx="122" cy="126" rx="3" ry="2.5" fill="white" opacity="0.5"/><ellipse cx="138" cy="122" rx="8" ry="7" fill="#BBDEFB" stroke="#64B5F6" stroke-width="1.2"/><ellipse cx="142" cy="126" rx="3" ry="2.5" fill="white" opacity="0.5"/><ellipse cx="158" cy="122" rx="8" ry="7" fill="#BBDEFB" stroke="#64B5F6" stroke-width="1.2"/><ellipse cx="162" cy="126" rx="3" ry="2.5" fill="white" opacity="0.5"/><ellipse cx="38" cy="144" rx="8" ry="7" fill="#BBDEFB" stroke="#64B5F6" stroke-width="1.2"/><ellipse cx="42" cy="148" rx="3" ry="2.5" fill="white" opacity="0.5"/><ellipse cx="58" cy="144" rx="8" ry="7" fill="#BBDEFB" stroke="#64B5F6" stroke-width="1.2"/><ellipse cx="62" cy="148" rx="3" ry="2.5" fill="white" opacity="0.5"/><ellipse cx="78" cy="144" rx="8" ry="7" fill="#BBDEFB" stroke="#64B5F6" stroke-width="1.2"/><ellipse cx="82" cy="148" rx="3" ry="2.5" fill="white" opacity="0.5"/><ellipse cx="98" cy="144" rx="8" ry="7" fill="#BBDEFB" stroke="#64B5F6" stroke-width="1.2"/><ellipse cx="102" cy="148" rx="3" ry="2.5" fill="white" opacity="0.5"/><ellipse cx="118" cy="144" rx="8" ry="7" fill="#BBDEFB" stroke="#64B5F6" stroke-width="1.2"/><ellipse cx="122" cy="148" rx="3" ry="2.5" fill="white" opacity="0.5"/><ellipse cx="138" cy="144" rx="8" ry="7" fill="#BBDEFB" stroke="#64B5F6" stroke-width="1.2"/><ellipse cx="142" cy="148" rx="3" ry="2.5" fill="white" opacity="0.5"/><ellipse cx="158" cy="144" rx="8" ry="7" fill="#BBDEFB" stroke="#64B5F6" stroke-width="1.2"/><ellipse cx="162" cy="148" rx="3" ry="2.5" fill="white" opacity="0.5"/>
  <!-- tape edges -->
  <rect x="28" y="42" width="144" height="7" rx="8" fill="#90CAF9" opacity="0.5"/>
  <rect x="28" y="155" width="144" height="7" rx="8" fill="#90CAF9" opacity="0.5"/>
  <text x="100" y="185" font-family="Arial" font-size="9" fill="#1565C0" text-anchor="middle">BUBBLE WRAP</text>

        </svg>