<svg xmlns="http://www.w3.org/2000/svg" viewBox="0 0 200 200" width="200" height="200">
  <defs>
    <filter id="sh"><feDropShadow dx="0" dy="2" stdDeviation="3" flood-opacity="0.18"/></filter>
    <filter id="bl"><feGaussianBlur stdDeviation="3"/></filter>
    
  </defs>
  <!-- background -->
  <rect width="200" height="200" rx="20" fill="#FAFAFA"/>
  <rect x="78" y="135" width="44" height="30" rx="5" fill="#90A4AE" stroke="#333333" stroke-width="2.5" /><rect x="82" y="128" width="36" height="12" rx="4" fill="#78909C" stroke="#333333" stroke-width="2.5" /><path d="M85,128 C82,115 78,105 78,90 C78,70 90,58 100,58" fill="none" stroke="#FFF9C4" stroke-width="8" stroke-linecap="round"/><path d="M85,128 C82,115 78,105 78,90 C78,70 90,58 100,58" fill="none" stroke="#FFD54F" stroke-width="5" stroke-linecap="round" opacity="0.7"/><path d="M115,128 C118,115 122,105 122,90 C122,70 110,58 100,58" fill="none" stroke="#FFF9C4" stroke-width="8" stroke-linecap="round"/><path d="M115,128 C118,115 122,105 122,90 C122,70 110,58 100,58" fill="none" stroke="#FFD54F" stroke-width="5" stroke-linecap="round" opacity="0.7"/><circle cx="100" cy="58" r="12" fill="#FFF9C4" stroke="#FFD54F" stroke-width="2" /><rect x="10" y="168" width="180" height="22" rx="6" fill="#fff" fill-opacity="0.85"/><text x="100" y="179" font-family="Arial,sans-serif" font-size="11" font-weight="normal" fill="#444" text-anchor="middle" dominant-baseline="middle" >CFL Light Bulb</text>
</svg>