<svg xmlns="http://www.w3.org/2000/svg" viewBox="0 0 200 200" width="200" height="200">
  <defs>
    <filter id="sh"><feDropShadow dx="0" dy="2" stdDeviation="3" flood-opacity="0.18"/></filter>
    <filter id="bl"><feGaussianBlur stdDeviation="3"/></filter>
    
  </defs>
  <!-- background -->
  <rect width="200" height="200" rx="20" fill="#FAFAFA"/>
  <path d="M88,115 L83,158 Q83,165 100,165 Q117,165 117,158 L112,115 Z" fill="#558B2F" stroke="#333333" stroke-width="2.5"/><path d="M88,115 L84,88 Q80,68 100,62 Q120,68 116,88 L112,115 Z" fill="#689F38" stroke="#333333" stroke-width="2.5"/><path d="M90,62 L90,50 Q90,42 100,40 Q110,42 110,50 L110,62" fill="#558B2F" stroke="#333333" stroke-width="1.5"/><path d="M87,52 L87,38 Q87,32 100,30 Q113,32 113,38 L113,52" fill="#FFD600" stroke="#333333" stroke-width="1.5"/><rect x="87" y="50" width="26" height="5" rx="2" fill="#F57F17"/><line x1="92" y1="50" x2="92" y2="34" stroke="#9E9E9E" stroke-width="1"/><line x1="108" y1="50" x2="108" y2="34" stroke="#9E9E9E" stroke-width="1"/><line x1="90" y1="40" x2="110" y2="40" stroke="#9E9E9E" stroke-width="1"/><rect x="10" y="168" width="180" height="22" rx="6" fill="#fff" fill-opacity="0.85"/><text x="100" y="179" font-family="Arial,sans-serif" font-size="11" font-weight="normal" fill="#444" text-anchor="middle" dominant-baseline="middle" >Champagne Bottle</text>
</svg>