<svg xmlns="http://www.w3.org/2000/svg" viewBox="0 0 200 200" width="200" height="200">
  <defs>
    <filter id="sh"><feDropShadow dx="0" dy="2" stdDeviation="3" flood-opacity="0.18"/></filter>
    <filter id="bl"><feGaussianBlur stdDeviation="3"/></filter>
    
  </defs>
  <!-- background -->
  <rect width="200" height="200" rx="20" fill="#FAFAFA"/>
  <path d="M68,45 L72,155 Q72,162 100,162 Q128,162 128,155 L132,45 Q132,38 100,38 Q68,38 68,45 Z" fill="#E53935" stroke="#333333" stroke-width="2.5"/><path d="M73,75 L127,75 L130,110 L70,110 Z" fill="#FFD600" fill-opacity="0.6"/><path d="M73,75 C73,75 80,68 100,70 C120,68 127,75 127,75" fill="none" stroke="#FFD600" stroke-width="2"/><text x="100" y="92" font-family="Arial,sans-serif" font-size="11" font-weight="bold" fill="#FFD600" text-anchor="middle" filter="url(#bl)">CHIPS</text><text x="100" y="92" font-family="Arial,sans-serif" font-size="11" font-weight="bold" fill="#FFD600" text-anchor="middle">CHIPS</text><rect x="10" y="168" width="180" height="22" rx="6" fill="#fff" fill-opacity="0.85"/><text x="100" y="179" font-family="Arial,sans-serif" font-size="11" font-weight="normal" fill="#444" text-anchor="middle" dominant-baseline="middle" >Chip Packet</text>
</svg>