  <svg xmlns="http://www.w3.org/2000/svg" viewBox="0 0 200 200" width="200" height="200">
    <defs>
      <filter id="shadow" x="-15%" y="-15%" width="130%" height="140%">
        <feGaussianBlur in="SourceAlpha" stdDeviation="3.5"/>
        <feOffset dx="0" dy="3" result="offsetblur"/>
        <feFlood flood-color="#00000030"/>
        <feComposite in2="offsetblur" operator="in"/>
        <feMerge><feMergeNode/><feMergeNode in="SourceGraphic"/></feMerge>
      </filter>
      <filter id="blur"><feGaussianBlur stdDeviation="2.8"/></filter>
      <linearGradient id="bGrad" x1="0%" y1="0%" x2="100%" y2="0"><stop offset="0%" stop-color="#8B0000"/><stop offset="15%" stop-color="#8B0000"/><stop offset="40%" stop-color="#D32F2F"/><stop offset="60%" stop-color="#D32F2F"/><stop offset="85%" stop-color="#8B0000"/><stop offset="100%" stop-color="#8B0000"/></linearGradient><linearGradient id="capGrad" x1="0%" y1="0%" x2="0%" y2="100"><stop offset="0%" stop-color="#5C0000"/><stop offset="100%" stop-color="#8B0000"/></linearGradient>
    </defs>
    <rect width="200" height="200" rx="20" fill="#FFFFFF" stroke="#E0E0E0" stroke-width="1"/>

<path d="M 66,168 C 66,168 66,128 66,118 C 66,98 87,94 87,82 L 87,50 L 113,50 L 113,82 C 113,94 134,98 134,118 C 134,128 134,168 134,168 Z" fill="url(#bGrad)" stroke="#2D2D2D" stroke-width="1.8" filter="url(#shadow)"/>
<path d="M 78,95 C 76,95 74,102 74,110 L 74,148 C 74,153 76,155 78,154 L 82,152 C 80,148 79,143 79,138 L 79,110 C 79,102 81,97 84,97 Z" fill="white" opacity="0.28"/>
<!-- cap -->
<rect x="88" y="44" width="24" height="16" rx="4" fill="url(#capGrad)" stroke="#2D2D2D" stroke-width="1.5"/>
<rect x="90" y="47" width="20" height="3" rx="1" fill="white" opacity="0.25"/>
<rect x="76" y="95" width="48" height="46" rx="5" fill="#C62828" stroke="#8B0000" stroke-width="1"/>
<text x="100" y="123" font-family="Georgia,serif" font-size="15" font-style="italic" font-weight="bold" fill="white" text-anchor="middle" filter="url(#blur)">Cola</text><text x="100" y="123" font-family="Georgia,serif" font-size="15" font-style="italic" font-weight="bold" fill="white" opacity="0.35" text-anchor="middle">Cola</text>
<path d="M76,95 Q100,90 124,95" fill="none" stroke="#FFCDD2" stroke-width="1" opacity="0.5"/>

  </svg>