<svg xmlns="http://www.w3.org/2000/svg" viewBox="0 0 200 200" width="200" height="200">
  <defs>
    <filter id="sh"><feDropShadow dx="0" dy="2" stdDeviation="3" flood-opacity="0.18"/></filter>
    <filter id="bl"><feGaussianBlur stdDeviation="3"/></filter>
    
  </defs>
  <!-- background -->
  <rect width="200" height="200" rx="20" fill="#FAFAFA"/>
  <path d="M75,80 C75,60 125,60 125,80 L120,130 C120,148 80,148 80,130 Z" fill="#FFF9C4" stroke="#333333" stroke-width="2.5"/><path d="M75,80 C75,60 125,60 125,80" fill="none" stroke="#333333" stroke-width="2.5"/><path d="M90,62 L95,75 L88,82 L97,95" fill="none" stroke="#F57F17" stroke-width="3" stroke-linecap="round"/><path d="M78,80 C78,65 122,65 122,80" fill="#FFFDE7" stroke="#333333" stroke-width="1.5"/><path d="M45,120 C45,110 65,110 65,120 L62,135 C62,142 48,142 48,135 Z" fill="#FFF9C4" stroke="#333333" stroke-width="1.5"/><rect x="10" y="168" width="180" height="22" rx="6" fill="#fff" fill-opacity="0.85"/><text x="100" y="179" font-family="Arial,sans-serif" font-size="11" font-weight="normal" fill="#444" text-anchor="middle" dominant-baseline="middle" >Egg Shells</text>
</svg>