<svg xmlns="http://www.w3.org/2000/svg" viewBox="0 0 200 200" width="200" height="200">
  <defs>
    <filter id="sh"><feDropShadow dx="0" dy="2" stdDeviation="3" flood-opacity="0.18"/></filter>
    <filter id="bl"><feGaussianBlur stdDeviation="3"/></filter>
    
  </defs>
  <!-- background -->
  <rect width="200" height="200" rx="20" fill="#FAFAFA"/>
  <ellipse cx="80" cy="100" rx="45" ry="22" fill="#B3E5FC" stroke="#333333" stroke-width="2.5"/><path d="M112,85 L130,70 L140,100 L130,130 L112,115" fill="#B3E5FC" stroke="#333333" stroke-width="2.5"/><line x1="35" y1="100" x2="112" y2="100" stroke="#0288D1" stroke-width="2.5"/><line x1="48" y1="100" x2="44" y2="85" stroke="#0288D1" stroke-width="2" stroke-linecap="round"/><line x1="58" y1="100" x2="54" y2="115" stroke="#0288D1" stroke-width="2" stroke-linecap="round"/><line x1="68" y1="100" x2="64" y2="85" stroke="#0288D1" stroke-width="2" stroke-linecap="round"/><line x1="78" y1="100" x2="74" y2="115" stroke="#0288D1" stroke-width="2" stroke-linecap="round"/><line x1="88" y1="100" x2="84" y2="85" stroke="#0288D1" stroke-width="2" stroke-linecap="round"/><line x1="98" y1="100" x2="94" y2="115" stroke="#0288D1" stroke-width="2" stroke-linecap="round"/><line x1="108" y1="100" x2="104" y2="85" stroke="#0288D1" stroke-width="2" stroke-linecap="round"/><circle cx="48" cy="92" r="5" fill="white" stroke="#0288D1" stroke-width="1.5" /><circle cx="49" cy="91" r="2" fill="#0288D1" stroke="none" stroke-width="0" /><rect x="10" y="168" width="180" height="22" rx="6" fill="#fff" fill-opacity="0.85"/><text x="100" y="179" font-family="Arial,sans-serif" font-size="11" font-weight="normal" fill="#444" text-anchor="middle" dominant-baseline="middle" >Fish Bones</text>
</svg>