<svg xmlns="http://www.w3.org/2000/svg" viewBox="0 0 200 200" width="200" height="200">
  <defs>
    <filter id="sh"><feDropShadow dx="0" dy="2" stdDeviation="3" flood-opacity="0.18"/></filter>
    <filter id="bl"><feGaussianBlur stdDeviation="3"/></filter>
    
  </defs>
  <!-- background -->
  <rect width="200" height="200" rx="20" fill="#FAFAFA"/>
  <path d="M55,160 C50,130 60,100 70,70 C65,100 75,115 80,160" fill="#4CAF50" stroke="#388E3C" stroke-width="1.5"/><path d="M85,160 C80,125 90,90 95,60 C92,90 100,110 105,160" fill="#66BB6A" stroke="#388E3C" stroke-width="1.5"/><path d="M110,160 C108,128 118,96 122,68 C118,96 126,112 130,160" fill="#4CAF50" stroke="#388E3C" stroke-width="1.5"/><path d="M38,160 C36,138 42,118 48,95 C45,118 50,135 55,160" fill="#81C784" stroke="#388E3C" stroke-width="1.5"/><path d="M135,160 C133,138 140,115 146,90 C142,115 148,135 152,160" fill="#81C784" stroke="#388E3C" stroke-width="1.5"/><rect x="10" y="168" width="180" height="22" rx="6" fill="#fff" fill-opacity="0.85"/><text x="100" y="179" font-family="Arial,sans-serif" font-size="11" font-weight="normal" fill="#444" text-anchor="middle" dominant-baseline="middle" >Garden Clippings</text>
</svg>