<svg xmlns="http://www.w3.org/2000/svg" viewBox="0 0 200 200" width="200" height="200">
  <defs>
    <filter id="sh"><feDropShadow dx="0" dy="2" stdDeviation="3" flood-opacity="0.18"/></filter>
    <filter id="bl"><feGaussianBlur stdDeviation="3"/></filter>
    
  </defs>
  <!-- background -->
  <rect width="200" height="200" rx="20" fill="#FAFAFA"/>
  <rect x="55" y="55" width="60" height="115" rx="8" fill="#FF7043" stroke="#333333" stroke-width="2.5" /><rect x="55" y="55" width="60" height="18" rx="8" fill="#E64A19" stroke="#333333" stroke-width="2.5" /><text x="85" y="66" font-family="Arial,sans-serif" font-size="9" fill="white" text-anchor="middle">Rx</text><rect x="62" y="80" width="46" height="55" rx="4" fill="#FF8A65" stroke="#333333" stroke-width="2.5" /><text x="85" y="107" font-family="Arial,sans-serif" font-size="8" fill="white" text-anchor="middle">PILLS</text><rect x="122" y="70" width="38" height="80" rx="4" fill="#E0E0E0" stroke="#333333" stroke-width="2.5" /><ellipse cx="132" cy="88" rx="7" ry="9" fill="#BBDEFB" stroke="#90CAF9" stroke-width="1.2"/><ellipse cx="148" cy="88" rx="7" ry="9" fill="#BBDEFB" stroke="#90CAF9" stroke-width="1.2"/><ellipse cx="132" cy="110" rx="7" ry="9" fill="#BBDEFB" stroke="#90CAF9" stroke-width="1.2"/><ellipse cx="148" cy="110" rx="7" ry="9" fill="#BBDEFB" stroke="#90CAF9" stroke-width="1.2"/><ellipse cx="132" cy="132" rx="7" ry="9" fill="#BBDEFB" stroke="#90CAF9" stroke-width="1.2"/><ellipse cx="148" cy="132" rx="7" ry="9" fill="#BBDEFB" stroke="#90CAF9" stroke-width="1.2"/><rect x="10" y="168" width="180" height="22" rx="6" fill="#fff" fill-opacity="0.85"/><text x="100" y="179" font-family="Arial,sans-serif" font-size="11" font-weight="normal" fill="#444" text-anchor="middle" dominant-baseline="middle" >Old Medication</text>
</svg>