<svg xmlns="http://www.w3.org/2000/svg" viewBox="0 0 200 200" width="200" height="200">
  <defs>
    <filter id="sh"><feDropShadow dx="0" dy="2" stdDeviation="3" flood-opacity="0.18"/></filter>
    <filter id="bl"><feGaussianBlur stdDeviation="3"/></filter>
    
  </defs>
  <!-- background -->
  <rect width="200" height="200" rx="20" fill="#FAFAFA"/>
  <rect x="35" y="55" width="130" height="110" rx="6" fill="#FFF9C4" stroke="#333333" stroke-width="2.5" /><rect x="35" y="55" width="130" height="18" rx="6" fill="#F9A825" stroke="#333333" stroke-width="2.5" /><text x="100" y="69" font-family="serif" font-size="11" font-weight="bold" fill="#333" text-anchor="middle">THE DAILY NEWS</text><line x1="48" y1="80" x2="48" y2="155" stroke="#e0cc00" stroke-width="0.8"/><line x1="80" y1="80" x2="80" y2="155" stroke="#e0cc00" stroke-width="0.8"/><line x1="120" y1="80" x2="120" y2="155" stroke="#e0cc00" stroke-width="0.8"/><line x1="152" y1="80" x2="152" y2="155" stroke="#e0cc00" stroke-width="0.8"/><line x1="50" y1="87" x2="78" y2="87" stroke="#ccc" stroke-width="1.5"/><line x1="50" y1="94" x2="78" y2="94" stroke="#ccc" stroke-width="1.5"/><line x1="50" y1="101" x2="78" y2="101" stroke="#ccc" stroke-width="1.5"/><line x1="50" y1="108" x2="78" y2="108" stroke="#ccc" stroke-width="1.5"/><line x1="50" y1="115" x2="78" y2="115" stroke="#ccc" stroke-width="1.5"/><line x1="50" y1="122" x2="78" y2="122" stroke="#ccc" stroke-width="1.5"/><line x1="50" y1="129" x2="78" y2="129" stroke="#ccc" stroke-width="1.5"/><line x1="50" y1="136" x2="78" y2="136" stroke="#ccc" stroke-width="1.5"/><line x1="50" y1="143" x2="78" y2="143" stroke="#ccc" stroke-width="1.5"/><line x1="50" y1="150" x2="78" y2="150" stroke="#ccc" stroke-width="1.5"/><line x1="82" y1="87" x2="118" y2="87" stroke="#ccc" stroke-width="1.5"/><line x1="82" y1="94" x2="118" y2="94" stroke="#ccc" stroke-width="1.5"/><line x1="82" y1="101" x2="118" y2="101" stroke="#ccc" stroke-width="1.5"/><line x1="82" y1="108" x2="118" y2="108" stroke="#ccc" stroke-width="1.5"/><line x1="82" y1="115" x2="118" y2="115" stroke="#ccc" stroke-width="1.5"/><line x1="82" y1="122" x2="118" y2="122" stroke="#ccc" stroke-width="1.5"/><line x1="82" y1="129" x2="118" y2="129" stroke="#ccc" stroke-width="1.5"/><line x1="82" y1="136" x2="118" y2="136" stroke="#ccc" stroke-width="1.5"/><line x1="82" y1="143" x2="118" y2="143" stroke="#ccc" stroke-width="1.5"/><line x1="82" y1="150" x2="118" y2="150" stroke="#ccc" stroke-width="1.5"/><line x1="122" y1="87" x2="150" y2="87" stroke="#ccc" stroke-width="1.5"/><line x1="122" y1="94" x2="150" y2="94" stroke="#ccc" stroke-width="1.5"/><line x1="122" y1="101" x2="150" y2="101" stroke="#ccc" stroke-width="1.5"/><line x1="122" y1="108" x2="150" y2="108" stroke="#ccc" stroke-width="1.5"/><line x1="122" y1="115" x2="150" y2="115" stroke="#ccc" stroke-width="1.5"/><line x1="122" y1="122" x2="150" y2="122" stroke="#ccc" stroke-width="1.5"/><line x1="122" y1="129" x2="150" y2="129" stroke="#ccc" stroke-width="1.5"/><line x1="122" y1="136" x2="150" y2="136" stroke="#ccc" stroke-width="1.5"/><line x1="122" y1="143" x2="150" y2="143" stroke="#ccc" stroke-width="1.5"/><line x1="122" y1="150" x2="150" y2="150" stroke="#ccc" stroke-width="1.5"/><rect x="10" y="168" width="180" height="22" rx="6" fill="#fff" fill-opacity="0.85"/><text x="100" y="179" font-family="Arial,sans-serif" font-size="11" font-weight="normal" fill="#444" text-anchor="middle" dominant-baseline="middle" >Newspaper</text>
</svg>