<svg xmlns="http://www.w3.org/2000/svg" viewBox="0 0 200 200" width="200" height="200">
  <defs>
    <filter id="sh"><feDropShadow dx="0" dy="2" stdDeviation="3" flood-opacity="0.18"/></filter>
    <filter id="bl"><feGaussianBlur stdDeviation="3"/></filter>
    
  </defs>
  <!-- background -->
  <rect width="200" height="200" rx="20" fill="#FAFAFA"/>
  <rect x="45" y="70" width="110" height="90" rx="6" fill="#FAFAFA" stroke="#333333" stroke-width="2.5" /><rect x="40" y="60" width="120" height="18" rx="6" fill="#EEEEEE" stroke="#333333" stroke-width="2.5" /><line x1="40" y1="78" x2="160" y2="78" stroke="#ccc" stroke-width="1"/><path d="M60,92 Q80,85 100,92 Q120,99 140,92" fill="none" stroke="#F5A623" stroke-width="3" stroke-linecap="round"/><path d="M60,102 Q80,95 100,102 Q120,109 140,102" fill="none" stroke="#F5A623" stroke-width="3" stroke-linecap="round"/><path d="M60,112 Q80,105 100,112 Q120,119 140,112" fill="none" stroke="#F5A623" stroke-width="3" stroke-linecap="round"/><ellipse cx="100" cy="136" rx="30" ry="6" fill="#E0E0E0" fill-opacity="0.6"/><rect x="10" y="168" width="180" height="22" rx="6" fill="#fff" fill-opacity="0.85"/><text x="100" y="179" font-family="Arial,sans-serif" font-size="11" font-weight="normal" fill="#444" text-anchor="middle" dominant-baseline="middle" >Dirty Noodle Container</text>
</svg>