<svg xmlns="http://www.w3.org/2000/svg" viewBox="0 0 200 200" width="200" height="200">
  <defs>
    <filter id="sh"><feDropShadow dx="0" dy="2" stdDeviation="3" flood-opacity="0.18"/></filter>
    <filter id="bl"><feGaussianBlur stdDeviation="3"/></filter>
    
  </defs>
  <!-- background -->
  <rect width="200" height="200" rx="20" fill="#FAFAFA"/>
  <rect x="42" y="58" width="116" height="112" rx="4" fill="#EEEEEE" stroke="#333333" stroke-width="2.5" /><rect x="45" y="55" width="116" height="112" rx="4" fill="#F5F5F5" stroke="#333333" stroke-width="2.5" /><rect x="48" y="52" width="116" height="112" rx="4" fill="#FAFAFA" stroke="#333333" stroke-width="2.5" /><rect x="50" y="50" width="116" height="112" rx="4" fill="#FFFFFF" stroke="#333333" stroke-width="2.5" /><line x1="65" y1="65" x2="150" y2="65" stroke="#E0E0E0" stroke-width="1"/><line x1="65" y1="75" x2="150" y2="75" stroke="#E0E0E0" stroke-width="1"/><line x1="65" y1="85" x2="150" y2="85" stroke="#E0E0E0" stroke-width="1"/><line x1="65" y1="95" x2="150" y2="95" stroke="#E0E0E0" stroke-width="1"/><line x1="65" y1="105" x2="150" y2="105" stroke="#E0E0E0" stroke-width="1"/><line x1="65" y1="115" x2="150" y2="115" stroke="#E0E0E0" stroke-width="1"/><line x1="65" y1="125" x2="150" y2="125" stroke="#E0E0E0" stroke-width="1"/><line x1="65" y1="135" x2="150" y2="135" stroke="#E0E0E0" stroke-width="1"/><line x1="65" y1="145" x2="150" y2="145" stroke="#E0E0E0" stroke-width="1"/><line x1="65" y1="155" x2="150" y2="155" stroke="#E0E0E0" stroke-width="1"/><line x1="65" y1="65" x2="65" y2="155" stroke="#E0E0E0" stroke-width="1"/><rect x="10" y="168" width="180" height="22" rx="6" fill="#fff" fill-opacity="0.85"/><text x="100" y="179" font-family="Arial,sans-serif" font-size="11" font-weight="normal" fill="#444" text-anchor="middle" dominant-baseline="middle" >Printer Paper</text>
</svg>