<svg xmlns="http://www.w3.org/2000/svg" viewBox="0 0 200 200" width="200" height="200">
  <defs>
    <filter id="sh"><feDropShadow dx="0" dy="2" stdDeviation="3" flood-opacity="0.18"/></filter>
    <filter id="bl"><feGaussianBlur stdDeviation="3"/></filter>
    
  </defs>
  <!-- background -->
  <rect width="200" height="200" rx="20" fill="#FAFAFA"/>
  <path d="M80,75 L76,155 Q76,163 100,163 Q124,163 124,155 L120,75 Z" fill="#F1F8E9" stroke="#333333" stroke-width="2.5"/><rect x="83" y="58" width="34" height="22" rx="6" fill="#C5E1A5" stroke="#333333" stroke-width="2.5" /><rect x="87" y="50" width="26" height="12" rx="5" fill="#AED581" stroke="#333333" stroke-width="2.5" /><path d="M87,58 Q72,65 68,82 L82,82 L87,70 Z" fill="#8BC34A" stroke="#333333" stroke-width="1.5"/><rect x="65" y="78" width="22" height="8" rx="4" fill="#689F38" stroke="#333333" stroke-width="1.5"/><line x1="65" y1="79" x2="48" y2="68" stroke="#AED581" stroke-width="2" stroke-linecap="round"/><line x1="65" y1="82" x2="44" y2="80" stroke="#AED581" stroke-width="1.5" stroke-linecap="round" opacity="0.6"/><line x1="65" y1="85" x2="48" y2="94" stroke="#AED581" stroke-width="1.5" stroke-linecap="round" opacity="0.4"/><rect x="82" y="95" width="36" height="42" rx="4" fill="#FFEB3B" stroke="#333333" stroke-width="2.5" /><text x="100" y="112" font-family="Arial,sans-serif" font-size="16" text-anchor="middle">⚠</text><rect x="10" y="168" width="180" height="22" rx="6" fill="#fff" fill-opacity="0.85"/><text x="100" y="179" font-family="Arial,sans-serif" font-size="11" font-weight="normal" fill="#444" text-anchor="middle" dominant-baseline="middle" >Chemical Spray Bottle</text>
</svg>