<svg xmlns="http://www.w3.org/2000/svg" viewBox="0 0 200 200" width="200" height="200">
  <defs>
    <filter id="sh"><feDropShadow dx="0" dy="2" stdDeviation="3" flood-opacity="0.18"/></filter>
    <filter id="bl"><feGaussianBlur stdDeviation="3"/></filter>
    
  </defs>
  <!-- background -->
  <rect width="200" height="200" rx="20" fill="#FAFAFA"/>
  <rect x="35" y="75" width="130" height="70" rx="6" fill="#D7A86E" stroke="#333333" stroke-width="2.5" /><line x1="38" y1="82" x2="162" y2="82" stroke="#C48A50" stroke-width="1.5"/><line x1="38" y1="90" x2="162" y2="90" stroke="#C48A50" stroke-width="1.5"/><line x1="38" y1="98" x2="162" y2="98" stroke="#C48A50" stroke-width="1.5"/><line x1="38" y1="106" x2="162" y2="106" stroke="#C48A50" stroke-width="1.5"/><line x1="38" y1="114" x2="162" y2="114" stroke="#C48A50" stroke-width="1.5"/><line x1="38" y1="122" x2="162" y2="122" stroke="#C48A50" stroke-width="1.5"/><line x1="38" y1="130" x2="162" y2="130" stroke="#C48A50" stroke-width="1.5"/><line x1="38" y1="138" x2="162" y2="138" stroke="#C48A50" stroke-width="1.5"/><line x1="45" y1="75" x2="45" y2="145" stroke="#C48A50" stroke-width="1"/><line x1="55" y1="75" x2="55" y2="145" stroke="#C48A50" stroke-width="1"/><line x1="65" y1="75" x2="65" y2="145" stroke="#C48A50" stroke-width="1"/><line x1="75" y1="75" x2="75" y2="145" stroke="#C48A50" stroke-width="1"/><line x1="85" y1="75" x2="85" y2="145" stroke="#C48A50" stroke-width="1"/><line x1="95" y1="75" x2="95" y2="145" stroke="#C48A50" stroke-width="1"/><line x1="105" y1="75" x2="105" y2="145" stroke="#C48A50" stroke-width="1"/><line x1="115" y1="75" x2="115" y2="145" stroke="#C48A50" stroke-width="1"/><line x1="125" y1="75" x2="125" y2="145" stroke="#C48A50" stroke-width="1"/><line x1="135" y1="75" x2="135" y2="145" stroke="#C48A50" stroke-width="1"/><line x1="145" y1="75" x2="145" y2="145" stroke="#C48A50" stroke-width="1"/><line x1="155" y1="75" x2="155" y2="145" stroke="#C48A50" stroke-width="1"/><path d="M35,75 Q60,90 80,75" fill="#FAFAFA" stroke="#333333" stroke-width="2"/><path d="M35,75 Q55,95 35,115" fill="#FAFAFA" stroke="#333333" stroke-width="2"/><circle cx="28" cy="150" r="4" fill="#D7A86E"/><circle cx="42" cy="155" r="3" fill="#D7A86E"/><circle cx="22" cy="140" r="3" fill="#D7A86E"/><rect x="10" y="168" width="180" height="22" rx="6" fill="#fff" fill-opacity="0.85"/><text x="100" y="179" font-family="Arial,sans-serif" font-size="11" font-weight="normal" fill="#444" text-anchor="middle" dominant-baseline="middle" >Half-eaten Weetbix</text>
</svg>