  <svg xmlns="http://www.w3.org/2000/svg" viewBox="0 0 200 200" width="200" height="200">
    <defs>
      <filter id="shadow" x="-15%" y="-15%" width="130%" height="140%">
        <feGaussianBlur in="SourceAlpha" stdDeviation="3.5"/>
        <feOffset dx="0" dy="3" result="offsetblur"/>
        <feFlood flood-color="#00000030"/>
        <feComposite in2="offsetblur" operator="in"/>
        <feMerge><feMergeNode/><feMergeNode in="SourceGraphic"/></feMerge>
      </filter>
      <filter id="blur"><feGaussianBlur stdDeviation="2.8"/></filter>
      <linearGradient id="gGrad" x1="0%" y1="0%" x2="100%" y2="0"><stop offset="0%" stop-color="#1A237E"/><stop offset="12%" stop-color="#1A237E"/><stop offset="40%" stop-color="#283593"/><stop offset="60%" stop-color="#283593"/><stop offset="88%" stop-color="#1A237E"/><stop offset="100%" stop-color="#1A237E"/></linearGradient>
    </defs>
    <rect width="200" height="200" rx="20" fill="#FFFFFF" stroke="#E0E0E0" stroke-width="1"/>

<path d="M 64,172 C 64,172 64,130 64,120 C 64,100 89,87 89,75 L 89,42 L 111,42 L 111,75 C 111,87 136,100 136,120 C 136,130 136,172 136,172 Z" fill="url(#gGrad)" stroke="#2D2D2D" stroke-width="1.8" filter="url(#shadow)"/>
<path d="M 78,95 C 76,95 74,102 74,110 L 74,148 C 74,153 76,155 78,154 L 82,152 C 80,148 79,143 79,138 L 79,110 C 79,102 81,97 84,97 Z" fill="white" opacity="0.28"/>
<rect x="89" y="38" width="22" height="8" rx="2" fill="#111133"/><rect x="87" y="45" width="26" height="8" rx="2" fill="#7B1FA2" stroke="#4A148C" stroke-width="1"/>
<rect x="76" y="100" width="48" height="44" rx="4" fill="#1A237E" stroke="#0D1757" stroke-width="1"/>
<text x="100" y="122" font-family="Georgia,serif" font-size="8" fill="#C5CAE9" text-anchor="middle">CHÂTEAU</text><text x="100" y="133" font-family="Georgia,serif" font-size="8" fill="#C5CAE9" text-anchor="middle">RESERVE</text>

  </svg>